<?xml version="1.0" encoding="UTF-8" standalone="no"?>
<!DOCTYPE svg PUBLIC "-//W3C//DTD SVG 1.1//EN" "http://www.w3.org/Graphics/SVG/1.1/DTD/svg11.dtd">
<svg width="100%" height="100%" viewBox="0 0 2250 1000" version="1.1" xmlns="http://www.w3.org/2000/svg" xmlns:xlink="http://www.w3.org/1999/xlink" xml:space="preserve" xmlns:serif="http://www.serif.com/" style="fill-rule:evenodd;clip-rule:evenodd;stroke-linejoin:round;stroke-miterlimit:2;">
    <g transform="matrix(1,0,0,1.67785,0,0)">
        <g transform="matrix(1.00895,0,0,0.756715,15.8478,30.7032)">
            <g transform="matrix(1,0,0,0.794667,0,0)">
                <path d="M781,33.2C717.4,42.8 668.2,67.6 626,111.2C598.4,139.8 578.4,172.4 566,209.2C555.6,240 553,256 553,293C553,341 560.4,371.8 581.8,413.2C618,483.6 682.4,532.2 762,549.4C787.6,554.8 843.6,554.2 872,548.2C903,541.6 931.8,531.6 961,517C986.4,504.4 1025,478.6 1025,474.4C1025,472 998.4,442 996.4,442C995.6,442 988,447.4 979.2,453.8C940.2,483 888.4,502.6 835.8,508C724,519.6 625,446.6 601,335C596,311.8 596.2,272.4 601.6,248.6C620,167.6 679.4,105.8 760.6,83.6C774.8,79.6 781.6,79 813,79.2C843.6,79.2 851.4,80 864.8,83.6C907,95.4 943.8,118.8 962.2,145.8C966,151.4 969.6,156 970.6,156C971.4,156 972,130.4 972,99L972,42L926,42L926,49.2C926,55.4 925.4,56.2 922.6,55C909.4,49.2 884.4,41 870,37.8C853.4,33.8 796,31 781,33.2Z" style="fill:rgb(108,40,136);fill-rule:nonzero;"/>
            </g>
            <g transform="matrix(1,0,0,0.794667,0,0)">
                <path d="M1922,35C1830.6,50.6 1757.2,109 1722,194C1708.4,226.8 1700.4,273.8 1703,307C1712,429.4 1793.2,523.2 1912.4,549.4C1937.6,554.8 1993.8,554.4 2021.8,548.2C2062.2,539.6 2100.2,525.2 2131,507C2151,495.4 2176.4,476.4 2175.6,473.8C2175.2,472.8 2168.8,464.8 2161.2,456L2147.4,440L2139.2,446.6C2085.6,490.2 2004,515.4 1941,508.2C1869.2,499.8 1808.2,459 1773.4,396C1764,378.8 1752.8,345.2 1749.8,324.2C1746.4,300 1748.4,263.4 1754.6,239.6C1774,165.4 1831.8,106.6 1907,84.8C1932.6,77.4 1976.6,75.8 2004,81.6C2026.6,86.2 2050.2,95.2 2067.8,105.4C2083.6,114.8 2106.2,135.4 2115.2,148.8L2122,159L2122,42L2078,42L2078,49C2078,52.8 2077.2,56 2076.2,56C2075.2,56 2069.6,53.8 2063.8,51.2C2049.4,45 2025,38.2 2004.2,34.8C1983.2,31.4 1942.4,31.4 1922,35Z" style="fill:rgb(108,40,136);fill-rule:nonzero;"/>
            </g>
            <g transform="matrix(1,0,0,0.794667,0,0)">
                <rect x="32" y="42" width="206" height="44" style="fill:rgb(108,40,136);"/>
            </g>
            <g transform="matrix(1,0,0,0.794667,0,0)">
                <rect x="338" y="42" width="206" height="44" style="fill:rgb(108,40,136);"/>
            </g>
            <g transform="matrix(1,0,0,0.794667,0,0)">
                <rect x="982" y="42" width="44" height="214" style="fill:rgb(108,40,136);"/>
            </g>
            <g transform="matrix(1,0,0,0.794667,0,0)">
                <path d="M1076,42L1076,86L1127.6,86C1174.4,86 1179.6,86.4 1182.4,89.4C1185.2,92.8 1229,171.4 1325.2,346.4C1350.4,392.4 1371.8,429.6 1372.8,429.4C1374.2,429 1405.4,373.2 1523,160L1563.2,87L1615.6,86.4L1668,86L1668,42L1536.6,42L1507,95.4C1439.8,217.4 1373.2,336 1372,336C1371.4,336 1349.2,296.6 1322.6,248.4C1296.2,200.4 1259.8,134.2 1241.8,101.6L1209,42.2L1142.6,42L1076,42Z" style="fill:rgb(108,40,136);fill-rule:nonzero;"/>
            </g>
            <g transform="matrix(1,0,0,0.794667,0,0)">
                <rect x="2132" y="42" width="46" height="214" style="fill:rgb(108,40,136);"/>
            </g>
            <g transform="matrix(1,0,0,0.794667,0,0)">
                <path d="M770,91.8C697.8,107.6 639,160.4 617.4,229C610,252.6 607.6,268.2 607.6,294.2C607.6,373.6 650.4,442.6 721,477C733.2,483 749.6,489.6 757.8,491.8C808.8,505.8 870,498.8 928,472.6C943.8,465.4 978.4,443.2 984.8,436.2C988.6,432.2 988.4,432 975,416.6C967.6,408 960.8,400.8 960,400.4C959.2,400 952.4,404.4 945,410C937.6,415.6 922.6,424.6 911.4,430C832.6,468.2 753,459.2 699.8,406.2C644,350.2 637,263.8 683,199C720,147 788.8,121.4 850.2,137C870.2,142 895,155.2 907.2,167.2C924,183.6 926,189.4 926,225.4L926,256L972,256L972,225.4C972,204.4 971,191.2 969,183C958.6,143.2 920.2,109.8 867,94.6C842.2,87.6 795.4,86.2 770,91.8Z" style="fill:rgb(108,40,136);fill-rule:nonzero;"/>
            </g>
            <g transform="matrix(1,0,0,0.794667,0,0)">
                <path d="M1924,90.8C1841.2,108.2 1778.4,170.4 1761.6,252C1755.8,279.6 1757.4,323.4 1764.8,349C1775.2,384.4 1789.6,409.2 1814.6,435.4C1858.6,481.2 1919.8,504.2 1982.8,498C2039.2,492.6 2086.2,474.6 2129.4,441.6L2140,433.6L2134,426.2C2130.8,422.2 2124.2,414.6 2119.4,409.2L2110.6,399.2L2095.4,410.4C2061,435.6 2019.8,450.2 1974.4,453.2C1918,457.2 1860,428.2 1829.6,381C1808.2,348 1799.8,313 1804.2,275C1815.2,177.8 1910.8,112.2 2004,138.2C2025.8,144.2 2045.2,155 2059.2,169C2075.6,185.4 2078,192.6 2078,228.4L2078,256L2122.2,256L2121.6,219.4C2121,187 2120.4,181.8 2116.4,171.6C2110.2,156 2096.6,138 2082.6,127C2067.6,115 2035.4,99.2 2015,93.8C1994.6,88.4 1944,86.6 1924,90.8Z" style="fill:rgb(108,40,136);fill-rule:nonzero;"/>
            </g>
            <g transform="matrix(1,0,0,0.794667,0,0)">
                <path d="M32,98L32,142L85.8,142L86.4,264.4L87.2,387L92.4,406.2C110.2,471.2 149.2,517.2 206,539.8C228,548.4 247.6,552.2 279,553.4C341.6,555.8 389.2,539.6 428.4,502.2C456.6,475.4 472,448.6 483.6,406.2L488.8,387L489.6,264.4L490.2,142L544,142L544,98L446.2,98L445.4,237.4C444.8,372.8 444.6,377.4 440.4,393.4C422.8,460.2 376.6,500.4 308.6,508C292.8,509.8 283.2,509.8 267.6,508C199.4,500.4 153.2,460.2 135.6,393.4C131.4,377.4 131.2,373.2 130.6,237.4L129.8,98L32,98Z" style="fill:rgb(108,40,136);fill-rule:nonzero;"/>
            </g>
            <g transform="matrix(1,0,0,0.794667,0,0)">
                <path d="M140,224.4C140,295.6 141,358.8 142,369C149.4,435 185.2,478.4 245,494.2C267.8,500.2 308.4,500.2 331,494.2C383.2,480.4 415.6,447.8 430.4,394.6C434.8,379.4 434.8,375.8 435.6,238.4L436.2,98L338,98L338,142L390.2,142L389.6,259.4C389,373 388.8,377.4 384.6,389.4C378.8,406.6 372,417.6 360.4,428.4C341.4,446.2 321.6,452.8 288,452.8C242.4,452.8 213.6,436.8 197.8,403C187,380 186.2,369.8 186,250.4L186,142L238,142L238,98L140,98L140,224.4Z" style="fill:rgb(108,40,136);fill-rule:nonzero;"/>
            </g>
            <g transform="matrix(1,0,0,0.794667,0,0)">
                <path d="M1076,98L1076,142L1128,142L1128,444L1076,444L1076,490L1174,490L1174,98L1076,98Z" style="fill:rgb(108,40,136);fill-rule:nonzero;"/>
            </g>
            <g transform="matrix(1,0,0,0.794667,0,0)">
                <path d="M1570.4,293.4L1571,489L1619.6,489.6L1668,490L1668,444.2L1642.6,443.6L1617,443L1616.4,292.4L1616,142L1668,142L1668,98L1570,98L1570.4,293.4Z" style="fill:rgb(108,40,136);fill-rule:nonzero;"/>
            </g>
            <g transform="matrix(1,0,0,0.794667,0,0)">
                <path d="M1184.4,301L1185,489L1233.6,489.6L1282,490L1282,444L1230,444L1230,367.6C1230,303.4 1230.4,291.6 1232.6,294C1234.2,295.6 1255.4,333.8 1280,379C1304.6,424.2 1325.4,462.2 1326.6,463.6C1328,465.4 1329.8,465.2 1334.8,462.4C1338.2,460.2 1347.2,455.2 1354.6,451.2L1368.2,443.8L1361.4,431.4C1291,303.8 1187,116.6 1185.6,115C1184.8,114 1184.2,197.8 1184.4,301Z" style="fill:rgb(108,40,136);fill-rule:nonzero;"/>
            </g>
            <g transform="matrix(1,0,0,0.794667,0,0)">
                <path d="M1517,190.6C1494,232.6 1453.2,306.4 1426.6,354.6C1399.8,402.8 1378,443 1378,443.8C1378,444.6 1386.4,449.8 1396.6,455.4C1410.2,462.8 1415.6,465 1417.2,463.2C1418.4,462 1440.4,423.2 1465.8,377C1491.4,330.8 1513.2,292.2 1514.2,291C1515.2,290 1516,318.6 1516,366.6L1516,444L1464,444L1464,490L1560,490L1560,302C1560,198.6 1559.8,114 1559.6,114C1559.2,114 1540.2,148.4 1517,190.6Z" style="fill:rgb(108,40,136);fill-rule:nonzero;"/>
            </g>
            <g transform="matrix(1,0,0,0.794667,0,0)">
                <rect x="1076" y="500" width="206" height="44" style="fill:rgb(108,40,136);"/>
            </g>
            <g transform="matrix(1,0,0,0.794667,0,0)">
                <rect x="1464" y="500" width="204" height="44" style="fill:rgb(108,40,136);"/>
            </g>
        </g>
        <g transform="matrix(1,0,0,0.596,-99.7392,117.141)">
            <text x="186.278px" y="743.481px" style="font-family:'IBMPlexSans-Bold', 'IBM Plex Sans', sans-serif;font-weight:700;font-size:240px;fill:rgb(108,40,136);">A<tspan x="362.678px 431.318px 615.878px 787.958px 996.518px 1065.16px 1230.28px 1413.64px 1622.2px 1774.12px 1950.52px 2136.28px " y="743.481px 743.481px 743.481px 743.481px 743.481px 743.481px 743.481px 743.481px 743.481px 743.481px 743.481px 743.481px "> GBM COMPANY</tspan></text>
        </g>
    </g>
</svg>
